<svg width="25" height="19" viewBox="0 0 25 19" fill="none" xmlns="http://www.w3.org/2000/svg">
<path fill-rule="evenodd" clip-rule="evenodd" d="M16.7918 16.4305L18.141 18.0367C22.6384 17.9724 24.3731 14.9527 24.3731 14.9527C24.3731 8.27092 21.4177 2.93831 21.4177 2.93831C18.398 0.818115 15.6353 0.818115 15.6353 0.818115L15.3141 1.07511C18.7192 1.97458 20.9037 3.70929 20.8394 3.77354C17.3058 1.07511 8.31103 0.818115 3.94214 3.77354C3.94214 3.77354 5.54835 2.10308 9.27475 1.07511L9.08201 0.818115C9.08201 0.818115 6.31933 0.818115 3.29966 2.93831C3.29966 2.93831 0.344238 8.27092 0.344238 14.9527C0.344238 14.9527 2.07894 17.9724 6.57632 18.0367L8.05403 16.4305C5.3556 15.5952 4.45613 13.9248 4.45613 13.9248C7.98978 17.2014 17.113 17.0729 20.454 13.9248C20.454 13.9248 19.426 15.7237 16.7918 16.4305ZM8.50399 13.0253C9.67494 13.0253 10.6242 12.0185 10.6242 10.7766C10.6242 9.53468 9.67494 8.52791 8.50399 8.52791C7.33303 8.52791 6.38379 9.53468 6.38379 10.7766C6.38379 12.0185 7.33303 13.0253 8.50399 13.0253ZM15.957 13.0253C17.1279 13.0253 18.0772 12.0185 18.0772 10.7766C18.0772 9.53468 17.1279 8.52791 15.957 8.52791C14.786 8.52791 13.8368 9.53468 13.8368 10.7766C13.8368 12.0185 14.786 13.0253 15.957 13.0253Z" fill="white"/>
</svg>
