<svg width="24" height="25" viewBox="0 0 24 25" fill="none" xmlns="http://www.w3.org/2000/svg">
<path d="M12.0005 16.2034C14.0461 16.2034 15.7043 14.5452 15.7043 12.4998C15.7043 10.4543 14.0461 8.79606 12.0005 8.79606C9.95492 8.79606 8.29671 10.4543 8.29671 12.4998C8.29671 14.5452 9.95492 16.2034 12.0005 16.2034Z" fill="white"/>
<path fill-rule="evenodd" clip-rule="evenodd" d="M6.66715 0.499756C2.98526 0.499756 0.000488281 3.48452 0.000488281 7.16642V17.8331C0.000488281 21.515 2.98526 24.4998 6.66715 24.4998H17.3338C21.0157 24.4998 24.0005 21.515 24.0005 17.8331V7.16642C24.0005 3.48452 21.0157 0.499756 17.3338 0.499756H6.66715ZM20.0005 4.49976C20.0005 5.23614 19.4035 5.83309 18.6672 5.83309C17.9308 5.83309 17.3338 5.23614 17.3338 4.49976C17.3338 3.76337 17.9308 3.16642 18.6672 3.16642C19.4035 3.16642 20.0005 3.76337 20.0005 4.49976ZM12.0005 19.1664C15.6821 19.1664 18.6672 16.1817 18.6672 12.4998C18.6672 8.81785 15.6821 5.83309 12.0005 5.83309C8.31885 5.83309 5.33382 8.81785 5.33382 12.4998C5.33382 16.1817 8.31885 19.1664 12.0005 19.1664Z" fill="white"/>
</svg>
