<svg width="24" height="25" viewBox="0 0 24 25" fill="none" xmlns="http://www.w3.org/2000/svg">
<path fill-rule="evenodd" clip-rule="evenodd" d="M12.0005 0.499756C18.628 0.499756 24.0005 5.87228 24.0005 12.4998C24.0005 19.1272 18.628 24.4998 12.0005 24.4998C5.37301 24.4998 0.000488281 19.1272 0.000488281 12.4998C0.000488281 5.87228 5.37301 0.499756 12.0005 0.499756ZM8.47563 7.97075C10.9771 7.97075 13.0046 9.99878 13.0046 12.4998C13.0046 15.0007 10.9771 17.0288 8.47563 17.0288C5.97466 17.0288 3.9471 15.0007 3.9471 12.4998C3.9471 9.99878 5.97466 7.97075 8.47563 7.97075ZM15.7221 8.32864C16.9879 8.32864 18.0136 10.196 18.0136 12.4998C18.0136 14.8035 16.9879 16.6709 15.7221 16.6709C14.4564 16.6709 13.4306 14.8035 13.4306 12.4998C13.4306 10.196 14.4564 8.32864 15.7221 8.32864ZM19.2559 8.68606C19.6965 8.68606 20.0539 10.3933 20.0539 12.4998C20.0539 14.6062 19.6965 16.3135 19.2559 16.3135C18.8149 16.3135 18.4575 14.6062 18.4575 12.4998C18.4575 10.3933 18.8149 8.68606 19.2559 8.68606Z" fill="white"/>
</svg>
