<svg width="25" height="20" viewBox="0 0 25 20" fill="none" xmlns="http://www.w3.org/2000/svg">
<path d="M22.0779 0.227081C22.0779 0.227081 24.2364 -0.614586 24.0566 1.42946C23.9966 2.27114 23.457 5.21698 23.0373 8.40331L21.5983 17.842C21.5983 17.842 21.4784 19.2248 20.3991 19.4653C19.3198 19.7057 17.701 18.6236 17.4012 18.3831C17.1613 18.2028 12.9043 15.4974 11.4053 14.1748C10.9856 13.814 10.5059 13.0926 11.4653 12.2509L17.7609 6.23903C18.4804 5.51759 19.1999 3.83425 16.202 5.87831L7.80783 11.5896C7.80783 11.5896 6.8485 12.1908 5.04978 11.6498L1.15245 10.4474C1.15245 10.4474 -0.286552 9.54559 2.17175 8.64375C8.16761 5.81814 15.5425 2.93242 22.0779 0.227081Z" fill="white"/>
</svg>
