<svg width="28" height="22" viewBox="0 0 28 22" fill="none" xmlns="http://www.w3.org/2000/svg">
<path d="M27.367 2.73319C26.3816 3.17069 25.3253 3.46444 24.2149 3.59777C25.3482 2.9186 26.2191 1.8436 26.6274 0.564437C25.5691 1.19152 24.392 1.64777 23.1441 1.8936C22.1441 0.826937 20.7191 0.162354 19.142 0.162354C16.1128 0.162354 13.6566 2.61652 13.6566 5.64569C13.6566 6.07485 13.7066 6.4936 13.8003 6.89569C9.24199 6.66652 5.20241 4.48319 2.49616 1.16444C2.02324 1.97694 1.75449 2.9186 1.75449 3.92277C1.75449 5.82485 2.72116 7.50402 4.19408 8.48944C3.29408 8.46027 2.44824 8.21236 1.70866 7.80194C1.70866 7.82485 1.70866 7.84777 1.70866 7.87069C1.70866 10.529 3.60033 12.7436 6.10658 13.2499C5.64824 13.3749 5.16283 13.4415 4.66283 13.4415C4.30866 13.4415 3.96491 13.4082 3.62949 13.3415C4.32949 15.5186 6.35449 17.1082 8.75241 17.1519C6.87741 18.6228 4.51283 19.4978 1.94199 19.4978C1.49824 19.4978 1.06283 19.4728 0.635742 19.4207C3.06074 20.979 5.94408 21.8853 9.04199 21.8853C19.1295 21.8853 24.6462 13.529 24.6462 6.28319C24.6462 6.04569 24.6399 5.8061 24.6316 5.57277C25.7024 4.79985 26.6316 3.83319 27.367 2.73319Z" fill="white"/>
</svg>
